<svg xmlns="http://www.w3.org/2000/svg" width="1400" height="820" viewBox="0 0 1400 820"><defs><linearGradient id="a" x1="0" x2="1"><stop stop-color="#30a8ff"/><stop offset="1" stop-color="#22d3ee"/></linearGradient><linearGradient id="b" x1="0" x2="1"><stop stop-color="#34d399"/><stop offset="1" stop-color="#66e6ad"/></linearGradient><filter id="ds"><feDropShadow dx="0" dy="12" stdDeviation="15" flood-opacity="0.3"/></filter></defs><rect width="1400" height="820" rx="32" fill="#050a12"/><text x="60" y="68" font-family="Segoe UI,Arial" font-size="34" font-weight="800" fill="#f4f8ff">VERIGUARD • Prototype Architecture</text><text x="60" y="101" font-family="Segoe UI,Arial" font-size="16" fill="#839ab0">Outer authentication + screening pipeline + persistent audit/history layer</text><g filter="url(#ds)"><rect x="60" y="145" width="290" height="120" rx="20" fill="#0c1a2a" stroke="#347fbc"/><text x="85" y="183" font-family="Segoe UI,Arial" font-size="14" font-weight="700" fill="#62c4ff">FRONTEND</text><text x="85" y="216" font-family="Segoe UI,Arial" font-size="23" font-weight="800" fill="#f7fbff">React + Vite</text><text x="85" y="243" font-family="Segoe UI,Arial" font-size="15" fill="#8ca5bd">Officer console • upload • camera • results</text></g><g filter="url(#ds)"><rect x="430" y="145" width="420" height="120" rx="20" fill="#0c1a2a" stroke="#2eb7af"/><text x="455" y="183" font-family="Segoe UI,Arial" font-size="14" font-weight="700" fill="#58e2d5">API + SECURITY</text><text x="455" y="216" font-family="Segoe UI,Arial" font-size="23" font-weight="800" fill="#f7fbff">FastAPI • Auth • Upload Security</text><text x="455" y="243" font-family="Segoe UI,Arial" font-size="15" fill="#8ca5bd">PBKDF2 sessions • protected endpoints • audit events</text></g><g filter="url(#ds)"><rect x="930" y="145" width="410" height="120" rx="20" fill="#0c1a2a" stroke="#725ad7"/><text x="955" y="183" font-family="Segoe UI,Arial" font-size="14" font-weight="700" fill="#c5b2ff">PERSISTENCE</text><text x="955" y="216" font-family="Segoe UI,Arial" font-size="23" font-weight="800" fill="#f7fbff">MongoDB</text><text x="955" y="243" font-family="Segoe UI,Arial" font-size="15" fill="#8ca5bd">Cases • officers • sessions • audit • reference data</text></g><path d="M350 205H430" stroke="url(#a)" stroke-width="5"/><polygon points="430,205 415,197 415,213" fill="#22d3ee"/><path d="M850 205H930" stroke="url(#b)" stroke-width="5"/><polygon points="930,205 915,197 915,213" fill="#34d399"/><g filter="url(#ds)"><rect x="60" y="330" width="620" height="400" rx="24" fill="#09131f" stroke="#235178"/><text x="90" y="371" font-family="Segoe UI,Arial" font-size="15" font-weight="700" fill="#64c5ff">AI SCREENING PIPELINE</text><g font-family="Segoe UI,Arial"><rect x="92" y="402" width="560" height="56" rx="14" fill="#0d2132"/><text x="116" y="436" font-size="19" font-weight="700" fill="#f4f8ff">01 • Tesseract OCR</text><text x="515" y="436" font-size="14" fill="#7f9ab2">FIELDS</text><rect x="92" y="470" width="560" height="56" rx="14" fill="#0d2132"/><text x="116" y="504" font-size="19" font-weight="700" fill="#f4f8ff">02 • Document Validation</text><text x="490" y="504" font-size="14" fill="#7f9ab2">RULES</text><rect x="92" y="538" width="560" height="56" rx="14" fill="#0d2132"/><text x="116" y="572" font-size="19" font-weight="700" fill="#f4f8ff">03 • Multi-signal Integrity</text><text x="500" y="572" font-size="14" fill="#7f9ab2">TAMPER</text><rect x="92" y="606" width="560" height="56" rx="14" fill="#0d2132"/><text x="116" y="640" font-size="19" font-weight="700" fill="#f4f8ff">04 • YuNet + SFace</text><text x="510" y="640" font-size="14" fill="#7f9ab2">FACE</text><rect x="92" y="674" width="560" height="56" rx="14" fill="#0d2132"/><text x="116" y="708" font-size="19" font-weight="700" fill="#f4f8ff">05 • Structured Risk Engine</text><text x="490" y="708" font-size="14" fill="#7f9ab2">DECISION SUPPORT</text></g></g><g filter="url(#ds)"><rect x="750" y="330" width="590" height="400" rx="24" fill="#09131f" stroke="#453c82"/><text x="780" y="371" font-family="Segoe UI,Arial" font-size="15" font-weight="700" fill="#c2acff">MONGODB DATA LAYER</text><g font-family="Segoe UI,Arial"><rect x="782" y="402" width="250" height="58" rx="14" fill="#101b2a"/><text x="805" y="437" font-size="18" font-weight="700" fill="#f4f8ff">screening_cases</text><text x="1048" y="437" font-size="13" fill="#7f94ab">HISTORY</text><rect x="1049" y="402" width="250" height="58" rx="14" fill="#101b2a"/><text x="1072" y="437" font-size="18" font-weight="700" fill="#f4f8ff">reference_passports</text><text x="1172" y="458" font-size="13" fill="#7f94ab">LOOKUP</text><rect x="782" y="474" width="250" height="58" rx="14" fill="#101b2a"/><text x="805" y="509" font-size="18" font-weight="700" fill="#f4f8ff">officers</text><text x="932" y="509" font-size="13" fill="#7f94ab">AUTH</text><rect x="1049" y="474" width="250" height="58" rx="14" fill="#101b2a"/><text x="1072" y="509" font-size="18" font-weight="700" fill="#f4f8ff">auth_sessions</text><text x="1202" y="509" font-size="13" fill="#7f94ab">TTL</text><rect x="782" y="546" width="250" height="58" rx="14" fill="#101b2a"/><text x="805" y="581" font-size="18" font-weight="700" fill="#f4f8ff">audit_logs</text><text x="932" y="581" font-size="13" fill="#7f94ab">TRACE</text><rect x="1049" y="546" width="250" height="58" rx="14" fill="#101b2a"/><text x="1072" y="581" font-size="18" font-weight="700" fill="#f4f8ff">dataset_metadata</text><text x="1201" y="581" font-size="13" fill="#7f94ab">SOURCE</text><rect x="782" y="618" width="517" height="78" rx="14" fill="#0b1c1c" stroke="#2f806d"/><text x="805" y="651" font-size="17" font-weight="700" fill="#63e6b4">Atomic case IDs</text><text x="805" y="680" font-size="15" fill="#9cc8bb">VG-YYYYMMDD-###### • generated by MongoDB counter</text></g></g></svg>